<svg version="1.1" id="Layer_1" xmlns="http://www.w3.org/2000/svg" xmlns:xlink="http://www.w3.org/1999/xlink" x="0px" y="0px"
	 width="100%" viewBox="0 0 550 550" enable-background="new 0 0 550 550" xml:space="preserve">
<path fill="none" opacity="1.000000" stroke="none"
	d="
M364.000000,551.000000 
	C242.694107,551.000000 121.888214,551.000000 1.041161,551.000000 
	C1.041161,367.735748 1.041161,184.471481 1.041161,1.103611 
	C184.222565,1.103611 367.445190,1.103611 550.833923,1.103611 
	C550.833923,184.333206 550.833923,367.666595 550.833923,551.000000 
	C488.804779,551.000000 426.652374,551.000000 364.000000,551.000000 
M482.954712,379.040924 
	C482.970337,293.072357 482.976379,207.103790 483.015350,121.135231 
	C483.019653,111.686195 481.070404,103.017090 475.109436,95.290459 
	C468.348572,86.527023 459.913116,81.057823 448.751160,81.049942 
	C332.793091,80.968010 216.834900,80.998726 100.876762,81.007614 
	C99.386032,81.007729 97.813011,80.842300 96.417107,81.240448 
	C79.112747,86.176140 69.040344,99.562065 69.027824,117.053810 
	C68.966438,202.856125 68.998360,288.658508 69.008163,374.460876 
	C69.008446,376.957581 69.129616,379.454285 69.010040,382.879120 
	C69.006805,398.867584 68.937660,414.856476 69.045868,430.844177 
	C69.073517,434.928802 69.445923,439.041046 70.032455,443.086578 
	C72.221832,458.187958 87.295059,471.110840 102.617302,471.089111 
	C217.867325,470.925629 333.117859,470.896088 448.367767,471.107544 
	C466.480316,471.140778 482.001465,456.763580 482.795837,438.397034 
	C483.636719,418.955658 482.875793,399.444977 482.954712,379.040924 
z"/>
<path fill="#CFD8DC" opacity="1.000000" stroke="none" 
	d="
M69.194427,381.950989 
	C69.129616,379.454285 69.008446,376.957581 69.008163,374.460876 
	C68.998360,288.658508 68.966438,202.856125 69.027824,117.053810 
	C69.040344,99.562065 79.112747,86.176140 96.417107,81.240448 
	C97.813011,80.842300 99.386032,81.007729 100.876762,81.007614 
	C216.834900,80.998726 332.793091,80.968010 448.751160,81.049942 
	C459.913116,81.057823 468.348572,86.527023 475.109436,95.290459 
	C481.070404,103.017090 483.019653,111.686195 483.015350,121.135231 
	C482.976379,207.103790 482.970337,293.072357 482.664185,379.796692 
	C482.042145,381.838257 481.623718,383.108673 481.392426,384.412231 
	C478.769379,399.195648 464.378296,413.144714 448.718689,413.203613 
	C439.581360,413.237976 430.445496,413.838074 421.308838,413.842346 
	C317.579346,413.890625 213.849884,413.890289 110.120407,413.848907 
	C98.355560,413.844238 87.398407,411.666595 78.785492,402.437775 
	C73.279114,396.537628 71.335518,389.268646 69.194427,381.950989 
M213.500000,298.974121 
	C222.760696,298.974121 232.021393,298.974121 241.287781,298.974121 
	C241.287781,292.223724 241.287781,286.199677 241.287781,279.721466 
	C226.050171,279.721466 211.283768,279.721466 196.288055,279.721466 
	C196.288055,269.389526 196.288055,259.535461 196.288055,248.987091 
	C207.714401,248.987091 218.760315,248.987091 229.656647,248.987091 
	C229.656647,242.550690 229.656647,236.821869 229.656647,230.615356 
	C218.291626,230.615356 207.356659,230.615356 196.359283,230.615356 
	C196.359283,221.425583 196.359283,212.738220 196.359283,203.979034 
	C197.980179,203.883713 199.137375,203.757935 200.294754,203.756500 
	C212.455795,203.741455 224.619919,203.592255 236.776199,203.832733 
	C240.799942,203.912323 242.152115,202.580475 241.818909,198.683731 
	C241.550232,195.541504 241.531281,192.336258 241.823242,189.198212 
	C242.195648,185.195450 240.636932,184.084137 236.723038,184.118164 
	C216.900330,184.290573 197.075317,184.190765 177.251144,184.214386 
	C175.967529,184.215912 174.684204,184.452255 173.278839,184.591431 
	C173.278839,222.763824 173.278839,260.638885 173.278839,298.974091 
	C186.581940,298.974091 199.540970,298.974091 213.500000,298.974121 
M283.786011,207.193924 
	C281.809143,207.470474 279.818817,207.674088 277.857635,208.035614 
	C266.599670,210.110901 257.565277,218.671326 256.022339,228.675110 
	C254.088226,241.215240 258.240234,249.774872 269.543854,256.071991 
	C273.168671,258.091339 277.038116,259.666870 280.754700,261.527344 
	C284.468170,263.386292 288.263397,265.134674 291.775574,267.327515 
	C294.947693,269.308044 296.660461,272.244110 295.525330,276.267944 
	C294.314545,280.560028 291.078064,281.787476 287.152863,281.969666 
	C280.102020,282.296936 277.815430,280.175537 274.383636,270.228760 
	C267.473938,270.228760 260.538483,270.228760 253.339935,270.228760 
	C252.992172,276.034210 254.921295,280.870422 257.899902,285.340302 
	C266.986359,298.975830 289.198303,303.278870 305.154510,294.553680 
	C322.085175,285.295624 323.231476,262.305878 307.134277,251.643677 
	C303.148376,249.003540 298.584381,247.231659 294.269897,245.093430 
	C289.954895,242.954956 285.524963,241.027618 281.322113,238.690018 
	C277.739227,236.697250 276.594482,232.945465 278.374054,229.670944 
	C279.670013,227.286301 282.689392,225.124619 285.363373,224.377502 
	C288.960846,223.372406 292.244812,225.272064 293.845673,228.931198 
	C294.625885,230.714600 294.935150,232.704041 295.454041,234.587418 
	C302.962402,234.587418 310.354675,234.587418 317.957428,234.587418 
	C318.017120,224.966751 314.168335,217.847336 306.586151,212.723526 
	C299.968903,208.251816 292.444916,207.189316 283.786011,207.193924 
M386.910736,293.499481 
	C396.655762,286.363983 399.454865,276.251007 399.900299,264.387665 
	C395.563324,264.387665 391.919312,264.317963 388.279297,264.408875 
	C385.141418,264.487244 381.544739,263.890808 379.042236,265.242737 
	C377.479248,266.087097 377.699127,270.034149 376.889862,272.514160 
	C375.405853,277.061859 372.439545,279.980438 367.392120,279.858551 
	C362.260162,279.734619 358.922943,277.069244 357.819275,272.009735 
	C357.183258,269.093994 356.438873,266.087036 356.535675,263.147247 
	C356.862915,253.209305 357.167969,243.241806 358.248871,233.369644 
	C358.789368,228.433136 363.072021,226.375336 367.841583,226.300018 
	C372.585419,226.225082 375.724365,228.701935 376.966888,233.289932 
	C377.656250,235.835495 378.032593,238.465851 378.603668,241.326645 
	C385.575928,241.326645 392.598572,241.326645 399.588074,241.326645 
	C400.883545,224.939819 391.068695,210.988022 376.522400,208.071899 
	C357.258392,204.210037 341.436188,212.423813 336.219910,229.492828 
	C331.999268,243.303818 332.030640,257.468109 334.890381,271.516296 
	C339.873047,295.993500 364.750000,306.718994 386.910736,293.499481 
z"/>
<path fill="#90A4AE" opacity="1.000000" stroke="none" 
	d="
M69.102234,382.415039 
	C71.335518,389.268646 73.279114,396.537628 78.785492,402.437775 
	C87.398407,411.666595 98.355560,413.844238 110.120407,413.848907 
	C213.849884,413.890289 317.579346,413.890625 421.308838,413.842346 
	C430.445496,413.838074 439.581360,413.237976 448.718689,413.203613 
	C464.378296,413.144714 478.769379,399.195648 481.392426,384.412231 
	C481.623718,383.108673 482.042145,381.838257 482.594086,380.258484 
	C482.875793,399.444977 483.636719,418.955658 482.795837,438.397034 
	C482.001465,456.763580 466.480316,471.140778 448.367767,471.107544 
	C333.117859,470.896088 217.867325,470.925629 102.617302,471.089111 
	C87.295059,471.110840 72.221832,458.187958 70.032455,443.086578 
	C69.445923,439.041046 69.073517,434.928802 69.045868,430.844177 
	C68.937660,414.856476 69.006805,398.867584 69.102234,382.415039 
z"/>
<path fill="#566F7B" opacity="1.000000" stroke="none" 
	d="
M213.000000,298.974121 
	C199.540970,298.974091 186.581940,298.974091 173.278839,298.974091 
	C173.278839,260.638885 173.278839,222.763824 173.278839,184.591431 
	C174.684204,184.452255 175.967529,184.215912 177.251144,184.214386 
	C197.075317,184.190765 216.900330,184.290573 236.723038,184.118164 
	C240.636932,184.084137 242.195648,185.195450 241.823242,189.198212 
	C241.531281,192.336258 241.550232,195.541504 241.818909,198.683731 
	C242.152115,202.580475 240.799942,203.912323 236.776199,203.832733 
	C224.619919,203.592255 212.455795,203.741455 200.294754,203.756500 
	C199.137375,203.757935 197.980179,203.883713 196.359283,203.979034 
	C196.359283,212.738220 196.359283,221.425583 196.359283,230.615356 
	C207.356659,230.615356 218.291626,230.615356 229.656647,230.615356 
	C229.656647,236.821869 229.656647,242.550690 229.656647,248.987091 
	C218.760315,248.987091 207.714401,248.987091 196.288055,248.987091 
	C196.288055,259.535461 196.288055,269.389526 196.288055,279.721466 
	C211.283768,279.721466 226.050171,279.721466 241.287781,279.721466 
	C241.287781,286.199677 241.287781,292.223724 241.287781,298.974121 
	C232.021393,298.974121 222.760696,298.974121 213.000000,298.974121 
z"/>
<path fill="#566F7B" opacity="1.000000" stroke="none" 
	d="
M284.231750,207.179993 
	C292.444916,207.189316 299.968903,208.251816 306.586151,212.723526 
	C314.168335,217.847336 318.017120,224.966751 317.957428,234.587418 
	C310.354675,234.587418 302.962402,234.587418 295.454041,234.587418 
	C294.935150,232.704041 294.625885,230.714600 293.845673,228.931198 
	C292.244812,225.272064 288.960846,223.372406 285.363373,224.377502 
	C282.689392,225.124619 279.670013,227.286301 278.374054,229.670944 
	C276.594482,232.945465 277.739227,236.697250 281.322113,238.690018 
	C285.524963,241.027618 289.954895,242.954956 294.269897,245.093430 
	C298.584381,247.231659 303.148376,249.003540 307.134277,251.643677 
	C323.231476,262.305878 322.085175,285.295624 305.154510,294.553680 
	C289.198303,303.278870 266.986359,298.975830 257.899902,285.340302 
	C254.921295,280.870422 252.992172,276.034210 253.339935,270.228760 
	C260.538483,270.228760 267.473938,270.228760 274.383636,270.228760 
	C277.815430,280.175537 280.102020,282.296936 287.152863,281.969666 
	C291.078064,281.787476 294.314545,280.560028 295.525330,276.267944 
	C296.660461,272.244110 294.947693,269.308044 291.775574,267.327515 
	C288.263397,265.134674 284.468170,263.386292 280.754700,261.527344 
	C277.038116,259.666870 273.168671,258.091339 269.543854,256.071991 
	C258.240234,249.774872 254.088226,241.215240 256.022339,228.675110 
	C257.565277,218.671326 266.599670,210.110901 277.857635,208.035614 
	C279.818817,207.674088 281.809143,207.470474 284.231750,207.179993 
z"/>
<path fill="#56707B" opacity="1.000000" stroke="none" 
	d="
M386.606384,293.706360 
	C364.750000,306.718994 339.873047,295.993500 334.890381,271.516296 
	C332.030640,257.468109 331.999268,243.303818 336.219910,229.492828 
	C341.436188,212.423813 357.258392,204.210037 376.522400,208.071899 
	C391.068695,210.988022 400.883545,224.939819 399.588074,241.326645 
	C392.598572,241.326645 385.575928,241.326645 378.603668,241.326645 
	C378.032593,238.465851 377.656250,235.835495 376.966888,233.289932 
	C375.724365,228.701935 372.585419,226.225082 367.841583,226.300018 
	C363.072021,226.375336 358.789368,228.433136 358.248871,233.369644 
	C357.167969,243.241806 356.862915,253.209305 356.535675,263.147247 
	C356.438873,266.087036 357.183258,269.093994 357.819275,272.009735 
	C358.922943,277.069244 362.260162,279.734619 367.392120,279.858551 
	C372.439545,279.980438 375.405853,277.061859 376.889862,272.514160 
	C377.699127,270.034149 377.479248,266.087097 379.042236,265.242737 
	C381.544739,263.890808 385.141418,264.487244 388.279297,264.408875 
	C391.919312,264.317963 395.563324,264.387665 399.900299,264.387665 
	C399.454865,276.251007 396.655762,286.363983 386.606384,293.706360 
z"/>
</svg>